<?xml version="1.0" encoding="UTF-8"?><svg id="a" xmlns="http://www.w3.org/2000/svg" xmlns:xlink="http://www.w3.org/1999/xlink" viewBox="0 0 86.9 66"><defs><style>.c{fill:#fff;}.d{fill:url(#b);}</style><linearGradient id="b" x1="14.96" y1="59.01" x2="44.87" y2="7.2" gradientTransform="matrix(1, 0, 0, 1, 0, 0)" gradientUnits="userSpaceOnUse"><stop offset="0" stop-color="#006cfa"/><stop offset=".1" stop-color="#0a68f4"/><stop offset=".27" stop-color="#285ee5"/><stop offset=".49" stop-color="#574ecd"/><stop offset=".75" stop-color="#9837ac"/><stop offset="1" stop-color="#db218a"/></linearGradient></defs><g><path class="c" d="M68.09,16.13c0,1.25-1.04,2.07-2.59,2.07h-2.74c-.25,0-.4-.14-.4-.4v-6.95c0-.25,.14-.4,.4-.4h2.39c1.48,0,2.58,.75,2.58,2,0,.8-.45,1.52-1.46,1.77,1.22,.13,1.83,.95,1.83,1.9Zm-4.56-4.71v2.44h1.17c1.32,0,1.81-.65,1.81-1.32,0-.74-.64-1.13-1.38-1.13h-1.6Zm3.36,4.67c0-.69-.58-1.34-1.95-1.34h-1.42v2.49h1.96c.82,0,1.4-.45,1.4-1.15Z"/><path class="c" d="M69.01,15.45c0-1.62,1.26-2.91,2.99-2.91,1.39,0,2.67,.83,2.82,2.6,.03,.27-.12,.41-.39,.41h-4.29c-.03,1.03,.82,1.78,2.02,1.78,.54,0,1.03-.14,1.5-.46,.21-.13,.39-.12,.56,.06l.08,.09c.18,.19,.18,.42-.08,.63-.64,.52-1.38,.69-2.08,.69-1.95,0-3.14-1.29-3.14-2.88Zm4.68-.74c-.29-.98-1.06-1.19-1.67-1.19-.64,0-1.44,.25-1.78,1.19h3.45Z"/><path class="c" d="M76.26,16.44v-2.9h-.67c-.14,0-.22-.09-.22-.23v-.43c0-.14,.08-.22,.22-.22h.7l.2-1.27c.03-.21,.15-.32,.35-.32h.23c.21,0,.33,.13,.33,.34v1.25h1.52c.14,0,.22,.08,.22,.22v.43c0,.14-.08,.23-.22,.23h-1.52v2.96c0,.6,.29,.83,.64,.83s.65-.2,.65-.6c0-.04,0-.12-.02-.21-.02-.15,.04-.25,.2-.25h.51c.13,0,.23,.06,.25,.2,.04,.19,.04,.4,.04,.41,0,.83-.6,1.44-1.66,1.44-.89,0-1.76-.45-1.76-1.88Z"/><path class="c" d="M80.26,15.42c0-1.59,1.1-2.89,2.74-2.89,.74,0,1.46,.25,1.98,1v-.48c0-.25,.15-.4,.41-.4h.33c.25,0,.4,.14,.4,.4v4.75c0,.25-.14,.4-.4,.4h-.33c-.25,0-.41-.14-.41-.4v-.48c-.52,.74-1.24,1-1.98,1-1.65,0-2.74-1.31-2.74-2.9Zm4.75,0c-.01-1.1-.75-1.9-1.85-1.9s-1.76,.87-1.76,1.9,.64,1.9,1.76,1.9,1.84-.81,1.85-1.9Z"/></g><path class="d" d="M54.85,12.97L34.89,1.44c-3.08-1.77-6.87-1.77-9.95,0L4.97,12.97C1.9,14.74,0,18.02,0,21.57v23.06c0,3.55,1.9,6.83,4.97,8.61l19.97,11.53c3.08,1.77,6.87,1.77,9.95,0l19.97-11.53c3.08-1.77,4.97-5.05,4.97-8.61V21.57c0-3.55-1.9-6.83-4.97-8.61ZM28.31,49.31c0,2.8-2.14,4.63-5.45,3.07-4.98-2.2-10.15-5.2-11.94-6.22-.6-.34-1.34,.07-1.37,.75l-.03,1.81c-.06,1.36-1.54,2.16-2.71,1.48-.79-.45-1.42-1.1-1.85-1.85-.44-.75-.68-1.62-.68-2.53v-4.55c0-2.77,2.95-4.55,5.4-3.24l9,4.79c.29,.13,.58,.2,.84,.2,.85,0,1.45-.68,1.45-1.79,0-1.45-1.03-3.11-2.29-3.71l-10.37-5.23c-3.49-1.86-2.96-5.01-2.96-5.01,0-2.13,2.26-3.49,4.15-2.49l17.33,8.95c.92,.49,1.49,1.45,1.49,2.49v13.07Zm3.85-21.08l-.38,.21c-.83,.44-1.82,.44-2.65,0L12.72,19.69c-1.95-1.04-2-3.82-.09-4.92l9.14-5.28c.56-.32,1.26-.32,1.81,.02l13.41,7.58c1.15,.64,2.53,.54,3.08-.18,.15-.19,.23-.42,.23-.66,0-.61-.48-1.32-1.31-1.83l-10.04-6.07c-1.12-.73-1.07-2.38,.09-3.05,.44-.25,.92-.37,1.41-.37s.97,.12,1.41,.37l16.4,9.47c1.91,1.11,1.86,3.88-.09,4.92l-7.94,4.23c-.54,.29-1.19,.28-1.72-.02l-14.85-8.55c-1.17-.6-2.68-.39-3.38,.44-.24,.27-.35,.59-.35,.9,0,.62,.43,1.26,1.2,1.68l11.11,6.74c1.19,.72,1.15,2.46-.08,3.11Zm8.88,12.6c.28,0,.59-.07,.92-.22l10.9-5.85c1.21-.65,2.69,.23,2.69,1.61,0,.68-.38,1.3-.98,1.62l-12.22,6.39c-1.21,.55-2.18,1.98-2.18,3.18,0,.87,.51,1.39,1.26,1.39,.28,0,.6-.08,.93-.23l10.77-5.78c1.1-.59,2.43,.2,2.43,1.45v.9c0,.96-.51,1.85-1.34,2.32l-16,9.24c-1.78,1.03-4.02-.26-4.02-2.33v-19.59c0-.99,.54-1.9,1.42-2.37l16-8.53c1.79-.95,3.95,.35,3.95,2.37,0,.85-.24,1.66-.66,2.36-.42,.7-1.04,1.28-1.78,1.68l-11.14,5.83c-1.21,.55-2.18,1.98-2.18,3.18,0,.88,.51,1.39,1.26,1.39Z"/></svg>