<svg width="161" height="30" viewBox="0 0 161 30" fill="none" xmlns="http://www.w3.org/2000/svg">
<path d="M7.48 12.12C7.48 9.04 7.68 7.16 10.64 7.16C13.6 7.16 13.92 8.72 14.08 11.48L20.72 10C20.72 7.36 20.12 0.279998 10.64 0.279998C1.16 0.279998 0.6 7.36 0.6 10V20C0.6 22.64 1.16 29.72 10.64 29.72C20.12 29.72 20.72 22.64 20.72 20L14.08 18.52C13.92 21.28 13.6 22.84 10.64 22.84C7.68 22.84 7.48 20.96 7.48 17.88V12.12ZM40.0628 18.68C42.5428 16.88 43.3828 14.4 43.3828 10.6C43.3828 4.04 40.5028 0.999998 33.3828 0.999998H23.3828V29H30.3428V20.24H33.4228L37.9428 29H45.6228L40.0628 18.68ZM33.6228 7.92C35.5428 7.88 36.5028 8.12 36.5028 10.6C36.5028 13.08 35.5428 13.32 33.6228 13.32H30.3428V7.92H33.6228ZM67.275 29H60.395V23.12H54.555V29H47.675V10.68C47.675 5.64 48.475 0.279998 57.475 0.279998C66.475 0.279998 67.275 5.64 67.275 10.68V29ZM60.395 10.68C60.395 8.76 60.115 7.8 57.475 7.8C54.835 7.8 54.555 8.76 54.555 10.68V16.2H60.395V10.68ZM71.0781 0.999998V29H82.1581C89.6781 29 91.8781 26.6 91.8781 21.64C91.8781 19.16 90.6781 17.16 89.0381 16.4C90.6781 14.6 91.0781 11.96 91.0781 10.6C91.0781 4.04 88.1981 0.999998 80.6781 0.999998H71.0781ZM77.9581 13.32V7.88H81.3181C83.2381 7.88 84.1981 8.12 84.1981 10.6C84.1981 13.08 83.2381 13.32 81.3181 13.32H77.9581ZM77.9181 23.32V19.08H81.7181C83.6381 19.08 84.5181 19.36 84.5181 21.24C84.5181 23.12 83.5581 23.32 81.6381 23.32H77.9181ZM113.916 29H107.036V23.12H101.196V29H94.3156V10.68C94.3156 5.64 95.1156 0.279998 104.116 0.279998C113.116 0.279998 113.916 5.64 113.916 10.68V29ZM107.036 10.68C107.036 8.76 106.756 7.8 104.116 7.8C101.476 7.8 101.196 8.76 101.196 10.68V16.2H107.036V10.68ZM117.719 0.999998V29H127.839C135.359 29 137.839 25.92 137.839 19.36V10.6C137.839 4.04 135.359 0.999998 127.839 0.999998H117.719ZM124.599 22.12V7.88H127.959C129.879 7.88 130.839 8.12 130.839 10.6C130.839 10.64 130.839 19.36 130.839 19.4C130.839 21.8 129.879 22.12 127.959 22.12H124.599ZM160.83 29H153.95V23.12H148.11V29H141.23V10.68C141.23 5.64 142.03 0.279998 151.03 0.279998C160.03 0.279998 160.83 5.64 160.83 10.68V29ZM153.95 10.68C153.95 8.76 153.67 7.8 151.03 7.8C148.39 7.8 148.11 8.76 148.11 10.68V16.2H153.95V10.68Z" fill="white"/>
</svg>
