<svg width="25" height="24" viewBox="0 0 25 24" fill="none" xmlns="http://www.w3.org/2000/svg">
<path d="M12.0747 20.54C12.0016 20.5424 11.929 20.5273 11.8629 20.496C11.7968 20.4647 11.7392 20.4181 11.6947 20.36L1.69468 8.36001C1.61452 8.26877 1.57031 8.15147 1.57031 8.03001C1.57031 7.90856 1.61452 7.79126 1.69468 7.70001L5.59468 3.61001C5.6463 3.55438 5.71037 3.51178 5.78164 3.4857C5.85291 3.45963 5.92935 3.45082 6.00468 3.46001H18.0047C18.1351 3.45923 18.2607 3.50947 18.3547 3.60001L22.2947 7.54001C22.3776 7.63189 22.4235 7.75125 22.4235 7.87501C22.4235 7.99878 22.3776 8.11814 22.2947 8.21001L12.4647 20.36C12.3603 20.4646 12.222 20.5284 12.0747 20.54ZM2.74468 8.06001L12.0747 19.25L21.2547 7.93001L17.7847 4.46001H6.16468L2.74468 8.06001Z" fill="white"/>
<path d="M21.9342 8.54004H2.07422C1.94161 8.54004 1.81443 8.48736 1.72067 8.39359C1.6269 8.29982 1.57422 8.17265 1.57422 8.04004C1.57678 7.90823 1.63028 7.78254 1.7235 7.68932C1.81672 7.5961 1.94241 7.5426 2.07422 7.54004H21.9342C22.066 7.5426 22.1917 7.5961 22.2849 7.68932C22.3782 7.78254 22.4317 7.90823 22.4342 8.04004C22.4342 8.17265 22.3815 8.29982 22.2878 8.39359C22.194 8.48736 22.0668 8.54004 21.9342 8.54004Z" fill="white"/>
<path d="M12.0742 20.54C11.9416 20.54 11.8144 20.4873 11.7207 20.3936C11.6269 20.2998 11.5742 20.1726 11.5742 20.04V4C11.5742 3.86739 11.6269 3.74021 11.7207 3.64645C11.8144 3.55268 11.9416 3.5 12.0742 3.5C12.2068 3.5 12.334 3.55268 12.4278 3.64645C12.5215 3.74021 12.5742 3.86739 12.5742 4V20C12.5798 20.0689 12.5709 20.1383 12.5483 20.2036C12.5256 20.269 12.4897 20.329 12.4427 20.3797C12.3957 20.4305 12.3387 20.4709 12.2753 20.4985C12.2118 20.5261 12.1434 20.5402 12.0742 20.54Z" fill="white"/>
</svg>
