<svg width="25" height="24" viewBox="0 0 25 24" fill="none" xmlns="http://www.w3.org/2000/svg">
<path fill-rule="evenodd" clip-rule="evenodd" d="M12.0039 0C5.37649 0 0.00390625 5.37258 0.00390625 12C0.00390625 18.6274 5.37649 24 12.0039 24C18.6313 24 24.0039 18.6274 24.0039 12C24.0039 5.37258 18.6313 0 12.0039 0ZM7.45654 5.19992H16.9514C17.7521 5.19992 18.404 5.84392 18.404 6.64192V19.1999L16.8805 17.8699L16.0232 17.0859L15.1162 16.2529L15.4917 17.5479H7.45654C6.65586 17.5479 6.00397 16.9039 6.00397 16.1059V6.64192C6.00397 5.84392 6.65586 5.19992 7.45654 5.19992Z" fill="#7289DA"/>
<path fill-rule="evenodd" clip-rule="evenodd" d="M14.2173 14.3421C14.2173 14.3421 13.9622 14.0411 13.7496 13.7751C14.6778 13.5161 15.0321 12.9421 15.0321 12.9421C14.7416 13.1311 14.4653 13.2641 14.2173 13.3551C13.863 13.5021 13.5229 13.6001 13.1898 13.6561C12.5096 13.7821 11.8861 13.7471 11.3546 13.6491C10.9507 13.5721 10.6035 13.4601 10.313 13.3481C10.1501 13.2851 9.97292 13.2081 9.79577 13.1101C9.78515 13.1031 9.77452 13.0978 9.76389 13.0926C9.75326 13.0873 9.74263 13.0821 9.732 13.0751C9.71783 13.0681 9.71075 13.0611 9.70366 13.0541C9.57612 12.9841 9.50526 12.9351 9.50526 12.9351C9.50526 12.9351 9.84537 13.4951 10.7453 13.7611C10.5327 14.0271 10.2705 14.3421 10.2705 14.3421C8.70457 14.2931 8.10938 13.2781 8.10938 13.2781C8.10938 11.0241 9.12972 9.19709 9.12972 9.19709C10.1501 8.44109 11.1208 8.46209 11.1208 8.46209L11.1917 8.54609C9.91623 8.91009 9.32812 9.46309 9.32812 9.46309C9.32812 9.46309 9.484 9.37909 9.74617 9.26009C10.5043 8.93109 11.1066 8.84009 11.3546 8.81909L11.3705 8.81644C11.4063 8.81043 11.438 8.80509 11.4751 8.80509C11.9073 8.74909 12.3962 8.73509 12.9064 8.79109C13.5795 8.86809 14.3023 9.06409 15.0392 9.46309C15.0392 9.46309 14.4794 8.93809 13.2749 8.57409L13.3741 8.46209C13.3741 8.46209 14.3448 8.44109 15.3651 9.19709C15.3651 9.19709 16.3855 11.0241 16.3855 13.2781C16.3855 13.2781 15.7832 14.2931 14.2173 14.3421ZM11.1222 11.2001C10.7215 11.2001 10.4051 11.5605 10.4051 12.0001C10.4051 12.4397 10.7285 12.8001 11.1222 12.8001C11.5229 12.8001 11.8392 12.4397 11.8392 12.0001C11.8463 11.5605 11.5229 11.2001 11.1222 11.2001ZM12.971 12.0001C12.971 11.5605 13.2874 11.2001 13.6881 11.2001C14.0888 11.2001 14.4051 11.5605 14.4051 12.0001C14.4051 12.4397 14.0888 12.8001 13.6881 12.8001C13.2944 12.8001 12.971 12.4397 12.971 12.0001Z" fill="#7289DA"/>
</svg>
