<svg width="318" height="19" viewBox="0 0 318 19" fill="none" xmlns="http://www.w3.org/2000/svg">
<path d="M0.5 0.999999V15H3.94V10.6H5.5C9.06 10.6 10.5 9.08 10.5 5.8C10.5 2.52 9.06 0.999999 5.5 0.999999H0.5ZM3.94 7.16V4.44H5.62C6.58 4.44 7.06 4.56 7.06 5.8C7.06 7.04 6.58 7.16 5.62 7.16H3.94ZM15.2505 11.76C16.0905 9.32 21.2505 8.58 21.2505 4.78C21.2705 4.18 21.1105 0.639999 16.6305 0.639999C12.5105 0.639999 11.7505 3.32 11.6305 4.96L15.0905 5.62C15.2305 4.6 15.6905 4.08 16.6305 4.08C17.4105 4.08 17.7305 4.6 17.6105 5.2C17.2905 6.78 11.4105 8.08 11.4105 12.68V15H21.1305V11.76H15.2505ZM32.7367 0.999999V4.44H26.6967V6.28H30.9967V9.72H26.6967V11.56H32.7367V15H23.1367V0.999999H32.7367ZM49.9656 15H46.5256V12.06H43.6056V15H40.1656V5.84C40.1656 3.32 40.5656 0.639999 45.0656 0.639999C49.5656 0.639999 49.9656 3.32 49.9656 5.84V15ZM46.5256 5.84C46.5256 4.88 46.3856 4.4 45.0656 4.4C43.7456 4.4 43.6056 4.88 43.6056 5.84V8.6H46.5256V5.84ZM55.9072 0.999999L59.0672 8.66V0.999999H62.5072V15H58.4672L55.3072 7.28V15H51.8672V0.999999H55.9072ZM74.2039 15H70.7639V12.06H67.8439V15H64.4039V5.84C64.4039 3.32 64.8039 0.639999 69.3039 0.639999C73.8039 0.639999 74.2039 3.32 74.2039 5.84V15ZM70.7639 5.84C70.7639 4.88 70.6239 4.4 69.3039 4.4C67.9839 4.4 67.8439 4.88 67.8439 5.84V8.6H70.7639V5.84ZM79.5455 0.999999V11.56H85.2055V15H76.1055V0.999999H79.5455ZM87.4505 0.999999L89.2505 5.5L91.0505 0.999999H95.2105L91.2505 9.88V15H87.2505V9.88L83.2705 0.999999H87.4505ZM99.6375 4.44H95.6375V0.999999H107.078V4.44H103.078V15H99.6375V4.44ZM111.673 0.999999V15H108.273V0.999999H111.673ZM116.904 6.56C116.904 5.02 117.004 4.08 118.484 4.08C119.964 4.08 120.124 4.86 120.204 6.24L123.524 5.5C123.524 4.18 123.224 0.639999 118.484 0.639999C113.744 0.639999 113.464 4.18 113.464 5.5V10.5C113.464 11.82 113.744 15.36 118.484 15.36C123.224 15.36 123.524 11.82 123.524 10.5L120.204 9.76C120.124 11.14 119.964 11.92 118.484 11.92C117.004 11.92 116.904 10.98 116.904 9.44V6.56ZM134.555 4.94C134.555 3.18 133.535 0.68 129.335 0.68C124.855 0.68 124.495 4.22 124.515 4.82C124.515 9.42 130.635 9.04 131.015 10.74C131.135 11.28 130.415 11.86 129.435 11.86C128.455 11.86 127.715 11.54 127.615 10.1L124.215 10.84C124.215 12.6 125.155 15.3 129.435 15.3C134.175 15.3 134.855 11.76 134.855 11.16C134.855 6.56 128.435 6.6 128.155 5.04C128.075 4.58 128.555 4.12 129.335 4.12C130.315 4.12 131.015 4.46 131.175 5.68L134.555 4.94Z" fill="white"/>
<line x1="151" y1="19" x2="151" y2="2.18557e-08" stroke="white"/>
<path d="M173.35 14H173.944C174.358 14 174.61 13.766 174.61 13.352V8.816L178.984 2.192C179.29 1.742 179.092 1.4 178.57 1.4H177.796C177.436 1.4 177.184 1.526 177.004 1.832L173.638 7.196L170.29 1.832C170.11 1.508 169.858 1.4 169.516 1.4H168.724C168.202 1.4 168.004 1.742 168.31 2.192L172.702 8.816V13.352C172.702 13.766 172.936 14 173.35 14ZM183.325 14.198C185.971 14.198 188.113 12.092 188.113 9.482C188.113 6.908 185.971 4.784 183.325 4.784C180.697 4.784 178.573 6.89 178.573 9.482C178.573 12.11 180.697 14.198 183.325 14.198ZM183.325 12.578C181.723 12.578 180.409 11.21 180.409 9.5C180.409 7.79 181.723 6.404 183.325 6.404C184.963 6.404 186.259 7.79 186.259 9.5C186.259 11.21 184.963 12.578 183.325 12.578ZM193.467 14.198C194.925 14.198 196.077 13.496 196.473 12.236V13.352C196.473 13.766 196.707 14 197.121 14H197.661C198.075 14 198.327 13.766 198.327 13.352V5.63C198.327 5.216 198.075 4.982 197.661 4.982H197.121C196.707 4.982 196.473 5.216 196.473 5.63V9.212C196.473 11.93 194.601 12.578 193.665 12.578C192.711 12.578 191.883 11.894 191.883 10.058V5.63C191.883 5.216 191.631 4.982 191.217 4.982H190.677C190.263 4.982 190.029 5.216 190.029 5.63V10.076C190.029 12.902 191.469 14.198 193.467 14.198ZM201.684 14H202.224C202.638 14 202.872 13.766 202.872 13.352V10.562C202.872 6.872 204.492 6.548 205.14 6.548C205.302 6.548 205.464 6.566 205.626 6.602C205.932 6.674 206.112 6.494 206.112 6.044V5.522C206.112 5.162 206.058 4.856 205.68 4.802L205.284 4.784C204.204 4.784 203.178 5.558 202.872 6.998V5.63C202.872 5.216 202.638 4.982 202.224 4.982H201.684C201.27 4.982 201.018 5.216 201.018 5.63V13.352C201.018 13.766 201.27 14 201.684 14ZM218.108 14.198C219.26 14.198 220.826 13.946 222.266 12.884C222.68 12.56 222.824 12.272 222.824 11.93V8.294C222.824 7.88 222.59 7.646 222.176 7.646H218.234C217.82 7.646 217.586 7.88 217.586 8.294V8.51C217.586 8.924 217.82 9.176 218.234 9.176H221.078V11.678C220.232 12.218 219.296 12.488 218.198 12.488C214.958 12.488 213.338 10.13 213.338 7.718C213.338 5.036 215.39 2.912 217.946 2.912C218.9 2.912 219.764 2.93 221.168 3.686C221.564 3.902 221.87 3.848 222.068 3.452L222.248 3.146C222.446 2.768 222.374 2.462 222.032 2.246C220.808 1.49 219.494 1.202 217.946 1.202C214.31 1.202 211.394 4.1 211.394 7.736C211.394 11.282 214.202 14.198 218.108 14.198ZM228.986 14.198C230.192 14.198 231.362 13.784 232.208 12.578V13.352C232.208 13.766 232.46 14 232.874 14H233.414C233.828 14 234.062 13.766 234.062 13.352V5.63C234.062 5.216 233.828 4.982 233.414 4.982H232.874C232.46 4.982 232.208 5.216 232.208 5.63V6.404C231.362 5.198 230.192 4.784 228.986 4.784C226.304 4.784 224.522 6.89 224.522 9.482C224.522 12.074 226.304 14.198 228.986 14.198ZM229.238 12.578C227.42 12.578 226.376 11.174 226.376 9.482C226.376 7.808 227.42 6.386 229.238 6.386C231.02 6.386 232.226 7.7 232.244 9.482C232.226 11.264 231.02 12.578 229.238 12.578ZM237.438 14H237.978C238.392 14 238.626 13.766 238.626 13.352V9.77C238.626 7.034 240.174 6.404 241.092 6.404C242.046 6.404 242.874 7.07 242.874 8.906V13.352C242.874 13.766 243.126 14 243.54 14H244.08C244.494 14 244.728 13.766 244.728 13.352V9.572C244.818 6.926 246.366 6.404 247.194 6.404C248.148 6.404 248.976 7.07 248.976 8.906V13.352C248.976 13.766 249.228 14 249.642 14H250.182C250.596 14 250.83 13.766 250.83 13.352V8.906C250.83 6.08 249.516 4.784 247.374 4.784C246.294 4.784 245.07 5.09 244.314 6.638C243.63 5.072 242.352 4.784 241.47 4.784C240.156 4.784 239.004 5.45 238.626 6.746V5.63C238.626 5.216 238.392 4.982 237.978 4.982H237.438C237.024 4.982 236.772 5.216 236.772 5.63V13.352C236.772 13.766 237.024 14 237.438 14ZM257.864 14.198C258.998 14.198 260.204 13.928 261.248 13.082C261.662 12.74 261.662 12.362 261.374 12.056L261.248 11.912C260.96 11.624 260.672 11.606 260.33 11.822C259.556 12.344 258.764 12.578 257.882 12.578C255.92 12.578 254.534 11.354 254.588 9.68H261.572C262.004 9.68 262.256 9.446 262.202 9.014C261.95 6.134 259.88 4.784 257.612 4.784C254.804 4.784 252.752 6.89 252.752 9.518C252.752 12.092 254.696 14.198 257.864 14.198ZM254.75 8.312C255.308 6.782 256.604 6.368 257.648 6.368C258.638 6.368 259.898 6.71 260.366 8.312H254.75ZM271.847 1.4H265.079C264.665 1.4 264.431 1.634 264.431 2.048V13.352C264.431 13.766 264.665 14 265.079 14H265.691C266.105 14 266.339 13.766 266.339 13.352V8.6H271.055C271.469 8.6 271.721 8.348 271.721 7.934V7.7C271.721 7.286 271.469 7.052 271.055 7.052H266.339V2.966H271.847C272.261 2.966 272.495 2.732 272.495 2.318V2.048C272.495 1.634 272.261 1.4 271.847 1.4ZM275.484 3.344C276.204 3.344 276.762 2.804 276.762 2.12C276.762 1.418 276.222 0.86 275.484 0.86C274.764 0.86 274.242 1.418 274.242 2.12C274.242 2.804 274.764 3.344 275.484 3.344ZM275.232 14H275.772C276.186 14 276.42 13.766 276.42 13.352V5.63C276.42 5.216 276.186 4.982 275.772 4.982H275.232C274.818 4.982 274.566 5.216 274.566 5.63V13.352C274.566 13.766 274.818 14 275.232 14ZM284.925 14H285.537C285.951 14 286.185 13.766 286.185 13.352V8.762H291.945V13.352C291.945 13.766 292.197 14 292.611 14H293.205C293.619 14 293.853 13.766 293.853 13.352V2.048C293.853 1.634 293.619 1.4 293.205 1.4H292.611C292.197 1.4 291.945 1.634 291.945 2.048V7.214H286.185V2.048C286.185 1.634 285.951 1.4 285.537 1.4H284.925C284.511 1.4 284.277 1.634 284.277 2.048V13.352C284.277 13.766 284.511 14 284.925 14ZM300.148 14.198C301.606 14.198 302.758 13.496 303.154 12.236V13.352C303.154 13.766 303.388 14 303.802 14H304.342C304.756 14 305.008 13.766 305.008 13.352V5.63C305.008 5.216 304.756 4.982 304.342 4.982H303.802C303.388 4.982 303.154 5.216 303.154 5.63V9.212C303.154 11.93 301.282 12.578 300.346 12.578C299.392 12.578 298.564 11.894 298.564 10.058V5.63C298.564 5.216 298.312 4.982 297.898 4.982H297.358C296.944 4.982 296.71 5.216 296.71 5.63V10.076C296.71 12.902 298.15 14.198 300.148 14.198ZM312.794 14.198C315.476 14.198 317.258 12.074 317.258 9.482C317.258 6.89 315.476 4.784 312.794 4.784C311.588 4.784 310.4 5.198 309.554 6.404V1.634C309.554 1.22 309.32 0.985999 308.906 0.985999H308.366C307.952 0.985999 307.7 1.22 307.7 1.634V13.352C307.7 13.766 307.952 14 308.366 14H308.906C309.32 14 309.554 13.766 309.554 13.352V12.578C310.4 13.784 311.588 14.198 312.794 14.198ZM312.524 12.578C310.76 12.578 309.536 11.264 309.518 9.482C309.536 7.7 310.76 6.386 312.524 6.386C314.36 6.386 315.404 7.808 315.404 9.482C315.404 11.174 314.36 12.578 312.524 12.578Z" fill="white"/>
</svg>
