<svg width="45" height="44" viewBox="0 0 45 44" fill="none" xmlns="http://www.w3.org/2000/svg">
<path d="M16.9439 21.36C16.2141 21.36 15.5007 21.1436 14.8939 20.7381C14.287 20.3326 13.8141 19.7563 13.5348 19.0821C13.2555 18.4078 13.1824 17.6659 13.3248 16.9501C13.4672 16.2343 13.8186 15.5768 14.3347 15.0608C14.8507 14.5447 15.5082 14.1933 16.224 14.0509C16.9398 13.9085 17.6818 13.9816 18.356 14.2609C19.0303 14.5402 19.6066 15.0131 20.012 15.6199C20.4175 16.2267 20.6339 16.9402 20.6339 17.67C20.6339 18.1546 20.5385 18.6344 20.353 19.0821C20.1676 19.5298 19.8958 19.9366 19.5531 20.2792C19.2105 20.6219 18.8037 20.8937 18.356 21.0791C17.9083 21.2645 17.4285 21.36 16.9439 21.36ZM16.9439 15C16.411 15 15.8902 15.1583 15.4474 15.4548C15.0046 15.7512 14.6598 16.1725 14.4568 16.6652C14.2538 17.1579 14.2017 17.6998 14.3072 18.2222C14.4126 18.7445 14.6708 19.2238 15.049 19.5992C15.4272 19.9746 15.9084 20.2292 16.4315 20.3307C16.9546 20.4322 17.4961 20.3761 17.9873 20.1694C18.4784 19.9628 18.8972 19.6149 19.1903 19.1699C19.4835 18.7249 19.6379 18.2028 19.6339 17.67C19.6326 17.318 19.562 16.9698 19.4261 16.6451C19.2902 16.3205 19.0917 16.0258 18.8419 15.7779C18.5921 15.5299 18.2959 15.3336 17.9703 15.2002C17.6446 15.0667 17.2959 14.9987 16.9439 15V15Z" fill="white"/>
<path d="M27.0633 21.26C26.3326 21.262 25.6178 21.047 25.0095 20.6423C24.4011 20.2376 23.9266 19.6614 23.6461 18.9867C23.3656 18.3121 23.2916 17.5693 23.4337 16.8526C23.5758 16.1359 23.9274 15.4774 24.4441 14.9608C24.9607 14.4441 25.6191 14.0925 26.3358 13.9504C27.0526 13.8084 27.7953 13.8823 28.47 14.1628C29.1447 14.4433 29.7209 14.9178 30.1256 15.5262C30.5303 16.1345 30.7452 16.8493 30.7433 17.58C30.7406 18.5552 30.3521 19.4897 29.6625 20.1792C28.9729 20.8688 28.0385 21.2574 27.0633 21.26V21.26ZM27.0633 14.89C26.5308 14.888 26.0098 15.0441 25.5661 15.3385C25.1224 15.6328 24.776 16.0523 24.5709 16.5436C24.3658 17.035 24.3111 17.5762 24.4137 18.0986C24.5164 18.6211 24.7718 19.1013 25.1476 19.4785C25.5234 19.8557 26.0027 20.1129 26.5248 20.2175C27.0469 20.3222 27.5882 20.2695 28.0804 20.0662C28.5725 19.8629 28.9932 19.5181 29.2892 19.0755C29.5852 18.6329 29.7433 18.1124 29.7433 17.58C29.7407 16.8691 29.4578 16.1879 28.956 15.6843C28.4543 15.1807 27.7742 14.8953 27.0633 14.89Z" fill="white"/>
<path d="M16.9439 31.37C16.2141 31.37 15.5007 31.1536 14.8939 30.7481C14.287 30.3427 13.8141 29.7664 13.5348 29.0921C13.2555 28.4178 13.1824 27.6759 13.3248 26.9601C13.4672 26.2443 13.8186 25.5868 14.3347 25.0708C14.8507 24.5547 15.5082 24.2033 16.224 24.0609C16.9398 23.9185 17.6818 23.9916 18.356 24.2709C19.0303 24.5502 19.6066 25.0231 20.012 25.6299C20.4175 26.2368 20.6339 26.9502 20.6339 27.68C20.6339 28.1646 20.5385 28.6444 20.353 29.0921C20.1676 29.5398 19.8958 29.9466 19.5531 30.2892C19.2105 30.6319 18.8037 30.9037 18.356 31.0891C17.9083 31.2745 17.4285 31.37 16.9439 31.37ZM16.9439 25C16.4115 25 15.891 25.158 15.4484 25.454C15.0058 25.7501 14.661 26.1708 14.4577 26.6629C14.2544 27.155 14.2017 27.6964 14.3064 28.2185C14.411 28.7406 14.6682 29.2198 15.0454 29.5956C15.4226 29.9714 15.9028 30.2269 16.4253 30.3295C16.9477 30.4322 17.4889 30.3775 17.9803 30.1723C18.4716 29.9672 18.8911 29.6209 19.1854 29.1772C19.4798 28.7335 19.6359 28.2124 19.6339 27.68C19.6339 27.3272 19.5643 26.9779 19.429 26.6521C19.2936 26.3263 19.0953 26.0304 18.8454 25.7814C18.5955 25.5324 18.2989 25.3352 17.9726 25.2011C17.6463 25.067 17.2967 24.9987 16.9439 25V25Z" fill="white"/>
<path d="M27.0633 31.27C26.3326 31.272 25.6178 31.057 25.0095 30.6523C24.4011 30.2476 23.9266 29.6714 23.6461 28.9967C23.3656 28.3221 23.2916 27.5793 23.4337 26.8626C23.5758 26.1459 23.9274 25.4875 24.4441 24.9708C24.9607 24.4541 25.6191 24.1025 26.3358 23.9604C27.0526 23.8184 27.7953 23.8923 28.47 24.1728C29.1447 24.4533 29.7209 24.9278 30.1256 25.5362C30.5303 26.1445 30.7452 26.8593 30.7433 27.59C30.7406 28.5652 30.3521 29.4997 29.6625 30.1892C28.9729 30.8788 28.0385 31.2674 27.0633 31.27V31.27ZM27.0633 24.9C26.5308 24.898 26.0098 25.0541 25.5661 25.3485C25.1224 25.6429 24.776 26.0623 24.5709 26.5536C24.3658 27.045 24.3111 27.5862 24.4137 28.1086C24.5164 28.6311 24.7718 29.1114 25.1476 29.4886C25.5234 29.8658 26.0027 30.123 26.5248 30.2276C27.0469 30.3322 27.5882 30.2795 28.0804 30.0762C28.5725 29.8729 28.9932 29.5281 29.2892 29.0855C29.5852 28.6429 29.7433 28.1225 29.7433 27.59C29.7407 26.8791 29.4578 26.1979 28.956 25.6943C28.4543 25.1907 27.7742 24.9053 27.0633 24.9V24.9Z" fill="white"/>
</svg>
