<svg width="45" height="44" viewBox="0 0 45 44" fill="none" xmlns="http://www.w3.org/2000/svg">
<path d="M18.794 19.48C18.7315 19.4948 18.6664 19.4948 18.604 19.48C18.5397 19.4567 18.4816 19.4191 18.434 19.37C18.3447 19.2753 18.2949 19.1501 18.2949 19.02C18.2949 18.8898 18.3447 18.7646 18.434 18.67C18.4784 18.6173 18.5333 18.5745 18.5951 18.544C18.6569 18.5136 18.7244 18.4963 18.7932 18.4931C18.862 18.49 18.9307 18.5011 18.9951 18.5258C19.0594 18.5505 19.1179 18.5882 19.167 18.6366C19.216 18.6849 19.2546 18.7429 19.2802 18.8069C19.3058 18.8709 19.3179 18.9394 19.3157 19.0083C19.3135 19.0772 19.2972 19.1448 19.2676 19.2071C19.2381 19.2693 19.196 19.3248 19.144 19.37C19.103 19.4033 19.0552 19.4272 19.004 19.44C18.9385 19.4708 18.8662 19.4845 18.794 19.48V19.48Z" fill="white"/>
<path d="M25.1739 19.48C25.1114 19.4942 25.0464 19.4942 24.9839 19.48C24.9227 19.4563 24.8679 19.4186 24.8239 19.37C24.7753 19.3216 24.737 19.2638 24.7112 19.2003C24.6854 19.1367 24.6727 19.0686 24.6739 19C24.6782 18.8657 24.7316 18.7376 24.8239 18.64C24.871 18.5975 24.9251 18.5637 24.9839 18.54C25.0756 18.5026 25.1761 18.4921 25.2735 18.5098C25.3709 18.5275 25.4613 18.5727 25.5339 18.64C25.6234 18.7386 25.6732 18.8668 25.6739 19C25.6699 19.1295 25.6203 19.2535 25.5339 19.35C25.4353 19.4384 25.3062 19.485 25.1739 19.48V19.48Z" fill="white"/>
<path d="M18.794 25.48C18.6588 25.4797 18.5294 25.4257 18.434 25.33C18.3447 25.2353 18.2949 25.1101 18.2949 24.98C18.2949 24.8498 18.3447 24.7246 18.434 24.63C18.4784 24.5774 18.5333 24.5345 18.5951 24.504C18.6569 24.4736 18.7244 24.4563 18.7932 24.4532C18.862 24.45 18.9307 24.4611 18.9951 24.4858C19.0594 24.5105 19.1179 24.5482 19.167 24.5966C19.216 24.645 19.2546 24.7029 19.2802 24.7669C19.3058 24.8309 19.3179 24.8994 19.3157 24.9683C19.3135 25.0372 19.2972 25.1048 19.2676 25.1671C19.2381 25.2293 19.196 25.2848 19.144 25.33C19.0993 25.378 19.0451 25.4162 18.9848 25.442C18.9246 25.4679 18.8596 25.4808 18.794 25.48Z" fill="white"/>
<path d="M25.1749 25.48C25.1123 25.4942 25.0474 25.4942 24.9849 25.48C24.9237 25.4563 24.8689 25.4187 24.8249 25.37C24.7772 25.3251 24.7397 25.2706 24.7149 25.21C24.7056 25.147 24.7056 25.083 24.7149 25.02C24.7044 24.9571 24.7044 24.8929 24.7149 24.83C24.7397 24.7695 24.7772 24.7149 24.8249 24.67C24.8689 24.6213 24.9237 24.5837 24.9849 24.56C25.0773 24.5226 25.1786 24.5131 25.2763 24.5326C25.3741 24.5522 25.464 24.5999 25.5349 24.67C25.6242 24.7647 25.6739 24.8899 25.6739 25.02C25.6739 25.1501 25.6242 25.2754 25.5349 25.37C25.4851 25.4112 25.4276 25.4421 25.3658 25.461C25.3041 25.4798 25.2392 25.4863 25.1749 25.48V25.48Z" fill="white"/>
<path d="M27.0044 30.52H17.0044C16.5414 30.5226 16.0825 30.4334 15.6543 30.2574C15.226 30.0815 14.8369 29.8223 14.5095 29.4949C14.1821 29.1675 13.9229 28.7784 13.747 28.3502C13.571 27.9219 13.4818 27.463 13.4844 27V17C13.4818 16.537 13.571 16.0781 13.747 15.6498C13.9229 15.2215 14.1821 14.8324 14.5095 14.505C14.8369 14.1777 15.226 13.9185 15.6543 13.7425C16.0825 13.5666 16.5414 13.4773 17.0044 13.48H27.0044C27.4674 13.4773 27.9263 13.5666 28.3546 13.7425C28.7829 13.9185 29.172 14.1777 29.4994 14.505C29.8268 14.8324 30.0859 15.2215 30.2619 15.6498C30.4378 16.0781 30.5271 16.537 30.5244 17V27C30.5271 27.463 30.4378 27.9219 30.2619 28.3502C30.0859 28.7784 29.8268 29.1675 29.4994 29.4949C29.172 29.8223 28.7829 30.0815 28.3546 30.2574C27.9263 30.4334 27.4674 30.5226 27.0044 30.52ZM17.0044 14.48C16.6728 14.4773 16.3439 14.5407 16.0369 14.6664C15.73 14.7921 15.4511 14.9776 15.2166 15.2121C14.982 15.4467 14.7965 15.7255 14.6708 16.0325C14.5451 16.3394 14.4818 16.6683 14.4844 17V27C14.4818 27.3317 14.5451 27.6605 14.6708 27.9675C14.7965 28.2744 14.982 28.5533 15.2166 28.7878C15.4511 29.0224 15.73 29.2079 16.0369 29.3336C16.3439 29.4593 16.6728 29.5226 17.0044 29.52H27.0044C27.6675 29.52 28.3034 29.2566 28.7722 28.7877C29.241 28.3189 29.5044 27.683 29.5044 27.02V17C29.5071 16.67 29.4444 16.3428 29.3199 16.0371C29.1954 15.7315 29.0117 15.4535 28.7793 15.2193C28.5469 14.985 28.2704 14.7991 27.9658 14.6722C27.6612 14.5453 27.3344 14.48 27.0044 14.48H17.0044Z" fill="white"/>
</svg>
