<svg width="45" height="44" viewBox="0 0 45 44" fill="none" xmlns="http://www.w3.org/2000/svg">
<path d="M25.3538 21.62C24.4139 21.622 23.4945 21.3451 22.7121 20.8243C21.9296 20.3036 21.3193 19.5624 20.9582 18.6947C20.5972 17.8269 20.5017 16.8715 20.6838 15.9495C20.866 15.0274 21.3176 14.1801 21.9815 13.5148C22.6454 12.8495 23.4917 12.3961 24.4134 12.212C25.3351 12.0279 26.2907 12.1214 27.1592 12.4806C28.0277 12.8398 28.7702 13.4486 29.2925 14.23C29.8149 15.0113 30.0938 15.9301 30.0938 16.87C30.0938 18.128 29.5947 19.3347 28.706 20.2252C27.8174 21.1157 26.6118 21.6173 25.3538 21.62V21.62ZM25.3538 13.62C24.7101 13.618 24.0804 13.8072 23.5444 14.1635C23.0084 14.5199 22.5903 15.0274 22.3431 15.6216C22.0959 16.2159 22.0306 16.8702 22.1557 17.5016C22.2808 18.1329 22.5905 18.7129 23.0457 19.1681C23.5008 19.6232 24.0808 19.9329 24.7122 20.058C25.3435 20.1831 25.9978 20.1179 26.5921 19.8707C27.1864 19.6234 27.6938 19.2053 28.0502 18.6693C28.4065 18.1334 28.5957 17.5036 28.5938 16.86C28.5885 16.0032 28.2451 15.1832 27.6384 14.5783C27.0316 13.9734 26.2105 13.6326 25.3538 13.63V13.62Z" fill="white"/>
<path d="M27.8139 31.44H15.0039C14.805 31.44 14.6142 31.361 14.4736 31.2203C14.3329 31.0797 14.2539 30.8889 14.2539 30.69C14.2539 30.4911 14.3329 30.3003 14.4736 30.1597C14.6142 30.019 14.805 29.94 15.0039 29.94H27.8139C28.0128 29.94 28.2036 30.019 28.3442 30.1597C28.4849 30.3003 28.5639 30.4911 28.5639 30.69C28.5639 30.8889 28.4849 31.0797 28.3442 31.2203C28.2036 31.361 28.0128 31.44 27.8139 31.44V31.44Z" fill="white"/>
<path d="M21.3535 31.44C21.2839 31.4497 21.2132 31.4497 21.1435 31.44C20.9526 31.3843 20.7916 31.255 20.6959 31.0806C20.6003 30.9062 20.5778 30.701 20.6335 30.51L23.5335 20.51C23.5599 20.4147 23.6051 20.3257 23.6665 20.2482C23.7279 20.1707 23.8042 20.1062 23.8909 20.0587C23.9775 20.0111 24.0729 19.9815 24.1712 19.9714C24.2696 19.9613 24.369 19.971 24.4635 20C24.653 20.058 24.8123 20.1876 24.9076 20.3613C25.0028 20.5351 25.0265 20.7391 24.9735 20.93L22.0735 30.93C22.0215 31.0794 21.9242 31.2088 21.7951 31.3002C21.666 31.3916 21.5117 31.4405 21.3535 31.44Z" fill="white"/>
</svg>
