<svg width="45" height="44" viewBox="0 0 45 44" fill="none" xmlns="http://www.w3.org/2000/svg">
<path d="M22.0038 31.83C20.0596 31.83 18.1591 31.2535 16.5426 30.1733C14.926 29.0932 13.6661 27.558 12.9221 25.7618C12.1781 23.9656 11.9834 21.9891 12.3627 20.0822C12.742 18.1754 13.6782 16.4239 15.053 15.0491C16.4277 13.6744 18.1793 12.7382 20.0861 12.3589C21.9929 11.9796 23.9694 12.1742 25.7656 12.9183C27.5618 13.6623 29.097 14.9222 30.1772 16.5387C31.2573 18.1553 31.8338 20.0558 31.8338 22C31.8312 24.6063 30.7947 27.105 28.9518 28.9479C27.1089 30.7908 24.6101 31.8273 22.0038 31.83ZM22.0038 13.17C20.2574 13.17 18.5502 13.6879 17.0981 14.6581C15.6461 15.6284 14.5143 17.0074 13.846 18.6209C13.1777 20.2344 13.0028 22.0098 13.3435 23.7226C13.6842 25.4355 14.5252 27.0088 15.7601 28.2437C16.995 29.4786 18.5683 30.3196 20.2812 30.6603C21.994 31.001 23.7695 30.8262 25.3829 30.1578C26.9964 29.4895 28.3755 28.3578 29.3457 26.9057C30.316 25.4536 30.8338 23.7464 30.8338 22C30.8312 19.6589 29.9 17.4145 28.2447 15.7592C26.5893 14.1038 24.3449 13.1726 22.0038 13.17Z" fill="white"/>
<path d="M17.3829 27.12C17.3146 27.1277 17.2456 27.121 17.1801 27.1004C17.1146 27.0797 17.0543 27.0455 17.0029 27C16.9376 26.9344 16.8919 26.852 16.8707 26.762C16.8495 26.6719 16.8537 26.5778 16.8829 26.49L18.8829 20.55C18.903 20.4859 18.9366 20.4268 18.9814 20.3768C19.0263 20.3268 19.0813 20.2869 19.1429 20.26L26.4029 16.96C26.4952 16.9189 26.5979 16.9068 26.6972 16.9253C26.7966 16.9437 26.8881 16.9918 26.9595 17.0633C27.031 17.1348 27.0791 17.2262 27.0976 17.3256C27.116 17.425 27.1039 17.5276 27.0629 17.62L23.7629 24.88C23.7359 24.9415 23.6961 24.9966 23.6461 25.0414C23.596 25.0863 23.537 25.1199 23.4729 25.14L17.5329 27.14C17.4821 27.1427 17.4312 27.1359 17.3829 27.12V27.12ZM19.7729 21.05L18.1729 25.83L23.0029 24.23L25.6629 18.39L19.7729 21.05Z" fill="white"/>
<path d="M21.534 23C21.4023 22.997 21.2769 22.9433 21.184 22.85C21.1369 22.8046 21.0993 22.7503 21.0736 22.6901C21.0478 22.63 21.0344 22.5654 21.034 22.5C21.0199 22.434 21.0199 22.3659 21.034 22.3C21.0576 22.2388 21.0953 22.184 21.144 22.14C21.1894 22.0955 21.244 22.0613 21.304 22.04C21.3937 22.0008 21.4931 21.9894 21.5893 22.0072C21.6855 22.025 21.7742 22.0713 21.844 22.14C21.8926 22.184 21.9303 22.2388 21.954 22.3C21.968 22.3659 21.968 22.434 21.954 22.5C21.9548 22.5656 21.9418 22.6306 21.916 22.6908C21.8902 22.7511 21.852 22.8053 21.804 22.85C21.7316 22.9267 21.6373 22.9791 21.534 23Z" fill="white"/>
</svg>
