<svg width="25" height="24" viewBox="0 0 25 24" fill="none" xmlns="http://www.w3.org/2000/svg">
<path d="M9.5625 3.26999C10.7492 3.26999 11.9092 3.62188 12.8959 4.28117C13.8826 4.94046 14.6516 5.87753 15.1058 6.97389C15.5599 8.07024 15.6787 9.27664 15.4472 10.4405C15.2157 11.6044 14.6443 12.6735 13.8051 13.5126C12.966 14.3517 11.8969 14.9232 10.733 15.1547C9.56915 15.3862 8.36275 15.2674 7.2664 14.8133C6.17004 14.3591 5.23297 13.5901 4.57368 12.6034C3.91439 11.6167 3.5625 10.4567 3.5625 9.26999C3.5625 7.67869 4.19464 6.15256 5.31986 5.02735C6.44507 3.90213 7.9712 3.26999 9.5625 3.26999V3.26999ZM9.5625 13.8C10.4547 13.7921 11.3247 13.5203 12.0627 13.0189C12.8007 12.5174 13.3738 11.8088 13.7098 10.9822C14.0458 10.1556 14.1296 9.24806 13.9507 8.37391C13.7718 7.49977 13.3382 6.69813 12.7045 6.06999C12.0708 5.44185 11.2654 5.01532 10.3897 4.84413C9.51401 4.67295 8.60725 4.76476 7.78365 5.10802C6.96006 5.45127 6.25648 6.0306 5.76156 6.77302C5.26665 7.51544 5.00253 8.38773 5.0025 9.27999C5.0038 9.87657 5.12293 10.467 5.35305 11.0174C5.58316 11.5678 5.91973 12.0674 6.34343 12.4874C6.76713 12.9073 7.26962 13.2395 7.82204 13.4648C8.37446 13.69 8.96593 13.8039 9.5625 13.8V13.8Z" fill="white"/>
<path d="M13.0032 12.51C13.2012 12.5143 13.3903 12.5928 13.5332 12.73L17.0932 16.29C17.2336 16.4306 17.3125 16.6212 17.3125 16.82C17.3125 17.0187 17.2336 17.2094 17.0932 17.35C17.0238 17.4255 16.9396 17.4857 16.8458 17.5269C16.752 17.5681 16.6506 17.5894 16.5482 17.5894C16.4457 17.5894 16.3443 17.5681 16.2505 17.5269C16.1567 17.4857 16.0725 17.4255 16.0032 17.35L12.4332 13.79C12.2927 13.6494 12.2138 13.4587 12.2138 13.26C12.2138 13.0612 12.2927 12.8706 12.4332 12.73C12.5088 12.6573 12.5982 12.6004 12.696 12.5627C12.7939 12.5249 12.8983 12.507 13.0032 12.51Z" fill="white"/>
</svg>
