<svg width="25" height="24" viewBox="0 0 25 24" fill="none" xmlns="http://www.w3.org/2000/svg">
<path fill-rule="evenodd" clip-rule="evenodd" d="M12.0039 0C5.37649 0 0.00390625 5.37258 0.00390625 12C0.00390625 18.6274 5.37649 24 12.0039 24C18.6313 24 24.0039 18.6274 24.0039 12C24.0039 5.37258 18.6313 0 12.0039 0ZM11.6697 10.169L11.6445 9.75375C11.569 8.67755 12.2321 7.69456 13.2813 7.31323C13.6674 7.17765 14.3221 7.1607 14.7502 7.27934C14.9181 7.33018 15.237 7.49966 15.4637 7.65219L15.875 7.93184L16.3282 7.78778C16.58 7.71151 16.9158 7.5844 17.0669 7.49966C17.2096 7.42339 17.3355 7.38102 17.3355 7.40645C17.3355 7.5505 17.0249 8.042 16.7647 8.31317C16.4122 8.6945 16.5129 8.72839 17.2264 8.47417C17.6544 8.33011 17.6628 8.33011 17.5789 8.49112C17.5285 8.57586 17.2683 8.87245 16.9913 9.14362C16.5213 9.60969 16.4961 9.66054 16.4961 10.0503C16.4961 10.652 16.2107 11.9062 15.9253 12.5925C15.3965 13.8806 14.2634 15.211 13.1302 15.8805C11.5354 16.8211 9.41177 17.0584 7.6239 16.5075C7.02794 16.3211 6.00391 15.8466 6.00391 15.7618C6.00391 15.7364 6.31448 15.7025 6.69219 15.694C7.48121 15.6771 8.27022 15.4568 8.94172 15.067L9.39498 14.7958L8.87457 14.6178C8.13592 14.3636 7.47281 13.7789 7.30494 13.2281C7.25458 13.0501 7.27136 13.0417 7.74141 13.0417L8.22825 13.0332L7.81696 12.8383C7.33012 12.5925 6.88525 12.1773 6.66701 11.7536C6.50753 11.4486 6.30608 10.6774 6.36484 10.6181C6.38163 10.5927 6.55789 10.6435 6.75934 10.7113C7.33851 10.9232 7.41406 10.8723 7.07831 10.5164C6.44878 9.87239 6.25572 8.91482 6.55789 8.0081L6.70059 7.60135L7.25458 8.15216C8.38773 9.26226 9.72234 9.92323 11.25 10.1181L11.6697 10.169Z" fill="#1DA1F2"/>
</svg>
