<svg width="25" height="24" viewBox="0 0 25 24" fill="none" xmlns="http://www.w3.org/2000/svg">
<path fill-rule="evenodd" clip-rule="evenodd" d="M0.00390625 12C0.00390625 18.6274 5.37649 24 12.0039 24C18.6313 24 24.0039 18.6274 24.0039 12C24.0039 5.37258 18.6313 0 12.0039 0C5.37649 0 0.00390625 5.37258 0.00390625 12ZM5.23036 8.10441L6.16948 5.60001H19.0015V14.3659L15.2452 18.1208H12.4285L10.5513 20H8.6722V18.1208H5.23036V8.10441Z" fill="#9146FF"/>
<path fill-rule="evenodd" clip-rule="evenodd" d="M7.41992 6.85144H17.749V13.7385L15.5576 15.9302H12.1152L10.2385 17.8068V15.9302H7.41992V6.85144ZM10.8631 13.1133H12.1152V9.35717H10.8631V13.1133ZM15.5575 13.1133H14.3058V9.35717H15.5575V13.1133Z" fill="#9146FF"/>
</svg>
